<?xml version="1.0" encoding="UTF-8" standalone="no"?>
<!DOCTYPE svg PUBLIC "-//W3C//DTD SVG 1.1//EN"
 "http://www.w3.org/Graphics/SVG/1.1/DTD/svg11.dtd">
<!-- Generated by graphviz version 2.43.0 (0)
 -->
<!-- Title: net Pages: 1 -->
<svg width="1521pt" height="1033pt"
 viewBox="0.00 0.00 1521.00 1033.00" xmlns="http://www.w3.org/2000/svg" xmlns:xlink="http://www.w3.org/1999/xlink">
<g id="graph0" class="graph" transform="scale(1 1) rotate(0) translate(4 1029)">
<title>net</title>
<polygon fill="white" stroke="transparent" points="-4,4 -4,-1029 1517,-1029 1517,4 -4,4"/>
<!-- 0 -->
<g id="node1" class="node">
<title>0</title>
<ellipse fill="none" stroke="black" cx="198.84" cy="-743.07" rx="48.17" ry="26.74"/>
<text text-anchor="middle" x="198.84" y="-746.87" font-family="Times,serif" font-size="14.00">Node 0</text>
<text text-anchor="middle" x="198.84" y="-731.87" font-family="Times,serif" font-size="14.00">0.17 0.84</text>
</g>
<!-- 1 -->
<g id="node2" class="node">
<title>1</title>
<ellipse fill="none" stroke="black" cx="805.99" cy="-181.4" rx="48.17" ry="26.74"/>
<text text-anchor="middle" x="805.99" y="-185.2" font-family="Times,serif" font-size="14.00">Node 1</text>
<text text-anchor="middle" x="805.99" y="-170.2" font-family="Times,serif" font-size="14.00">0.18 0.26</text>
</g>
<!-- 2 -->
<g id="node3" class="node">
<title>2</title>
<ellipse fill="none" stroke="black" cx="1297.54" cy="-321.43" rx="48.17" ry="26.74"/>
<text text-anchor="middle" x="1297.54" y="-325.23" font-family="Times,serif" font-size="14.00">Node 2</text>
<text text-anchor="middle" x="1297.54" y="-310.23" font-family="Times,serif" font-size="14.00">0.69 0.37</text>
</g>
<!-- 3 -->
<g id="node4" class="node">
<title>3</title>
<ellipse fill="none" stroke="black" cx="410.39" cy="-462.24" rx="48.17" ry="26.74"/>
<text text-anchor="middle" x="410.39" y="-466.04" font-family="Times,serif" font-size="14.00">Node 3</text>
<text text-anchor="middle" x="410.39" y="-451.04" font-family="Times,serif" font-size="14.00">0.27 0.56</text>
</g>
<!-- 4 -->
<g id="node5" class="node">
<title>4</title>
<ellipse fill="none" stroke="black" cx="690.2" cy="-865.05" rx="48.17" ry="26.74"/>
<text text-anchor="middle" x="690.2" y="-868.85" font-family="Times,serif" font-size="14.00">Node 4</text>
<text text-anchor="middle" x="690.2" y="-853.85" font-family="Times,serif" font-size="14.00">0.47 0.76</text>
</g>
<!-- 5 -->
<g id="node6" class="node">
<title>5</title>
<ellipse fill="none" stroke="black" cx="978.08" cy="-133.09" rx="48.17" ry="26.74"/>
<text text-anchor="middle" x="978.08" y="-136.89" font-family="Times,serif" font-size="14.00">Node 5</text>
<text text-anchor="middle" x="978.08" y="-121.89" font-family="Times,serif" font-size="14.00">0.29 0.05</text>
</g>
<!-- 5&#45;&#45;1 -->
<g id="edge25" class="edge">
<title>5&#45;&#45;1</title>
<path fill="none" stroke="black" d="M935.1,-145.15C908.82,-152.53 875.31,-161.94 849.02,-169.32"/>
<text text-anchor="middle" x="885.06" y="-161.04" font-family="Times,serif" font-size="14.00">24</text>
</g>
<!-- 6 -->
<g id="node7" class="node">
<title>6</title>
<ellipse fill="none" stroke="black" cx="854.58" cy="-828.41" rx="48.17" ry="26.74"/>
<text text-anchor="middle" x="854.58" y="-832.21" font-family="Times,serif" font-size="14.00">Node 6</text>
<text text-anchor="middle" x="854.58" y="-817.21" font-family="Times,serif" font-size="14.00">0.62 0.78</text>
</g>
<!-- 6&#45;&#45;4 -->
<g id="edge15" class="edge">
<title>6&#45;&#45;4</title>
<path fill="none" stroke="black" d="M809.66,-838.42C786.47,-843.59 758.25,-849.88 735.06,-855.05"/>
<text text-anchor="middle" x="765.36" y="-850.54" font-family="Times,serif" font-size="14.00">14</text>
</g>
<!-- 7 -->
<g id="node8" class="node">
<title>7</title>
<ellipse fill="none" stroke="black" cx="1297.01" cy="-254.5" rx="48.17" ry="26.74"/>
<text text-anchor="middle" x="1297.01" y="-258.3" font-family="Times,serif" font-size="14.00">Node 7</text>
<text text-anchor="middle" x="1297.01" y="-243.3" font-family="Times,serif" font-size="14.00">0.77 0.15</text>
</g>
<!-- 7&#45;&#45;2 -->
<g id="edge27" class="edge">
<title>7&#45;&#45;2</title>
<path fill="none" stroke="black" d="M1297.23,-281.72C1297.26,-285.92 1297.3,-290.26 1297.33,-294.45"/>
<text text-anchor="middle" x="1290.28" y="-276.89" font-family="Times,serif" font-size="14.00">26</text>
</g>
<!-- 8 -->
<g id="node9" class="node">
<title>8</title>
<ellipse fill="none" stroke="black" cx="232.83" cy="-571.59" rx="48.17" ry="26.74"/>
<text text-anchor="middle" x="232.83" y="-575.39" font-family="Times,serif" font-size="14.00">Node 8</text>
<text text-anchor="middle" x="232.83" y="-560.39" font-family="Times,serif" font-size="14.00">0.07 0.73</text>
</g>
<!-- 8&#45;&#45;0 -->
<g id="edge36" class="edge">
<title>8&#45;&#45;0</title>
<path fill="none" stroke="black" d="M227.52,-598.38C221.15,-630.5 210.55,-684.02 204.17,-716.18"/>
<text text-anchor="middle" x="208.84" y="-661.08" font-family="Times,serif" font-size="14.00">35</text>
</g>
<!-- 9 -->
<g id="node10" class="node">
<title>9</title>
<ellipse fill="none" stroke="black" cx="1174.61" cy="-181.74" rx="48.17" ry="26.74"/>
<text text-anchor="middle" x="1174.61" y="-185.54" font-family="Times,serif" font-size="14.00">Node 9</text>
<text text-anchor="middle" x="1174.61" y="-170.54" font-family="Times,serif" font-size="14.00">0.56 0.12</text>
</g>
<!-- 9&#45;&#45;2 -->
<g id="edge41" class="edge">
<title>9&#45;&#45;2</title>
<path fill="none" stroke="black" d="M1196.03,-206.07C1218.45,-231.56 1253.48,-271.35 1275.96,-296.91"/>
<text text-anchor="middle" x="1228.99" y="-255.29" font-family="Times,serif" font-size="14.00">40</text>
</g>
<!-- 9&#45;&#45;5 -->
<g id="edge24" class="edge">
<title>9&#45;&#45;5</title>
<path fill="none" stroke="black" d="M1130.51,-170.82C1098.25,-162.84 1054.68,-152.05 1022.38,-144.05"/>
<text text-anchor="middle" x="1069.44" y="-161.24" font-family="Times,serif" font-size="14.00">23</text>
</g>
<!-- 9&#45;&#45;7 -->
<g id="edge21" class="edge">
<title>9&#45;&#45;7</title>
<path fill="none" stroke="black" d="M1207.74,-201.43C1225.15,-211.79 1246.44,-224.44 1263.86,-234.8"/>
<text text-anchor="middle" x="1228.8" y="-221.92" font-family="Times,serif" font-size="14.00">20</text>
</g>
<!-- 10 -->
<g id="node11" class="node">
<title>10</title>
<ellipse fill="none" stroke="black" cx="362.72" cy="-660.62" rx="48.17" ry="26.74"/>
<text text-anchor="middle" x="362.72" y="-664.42" font-family="Times,serif" font-size="14.00">Node 10</text>
<text text-anchor="middle" x="362.72" y="-649.42" font-family="Times,serif" font-size="14.00">0.23 0.75</text>
</g>
<!-- 10&#45;&#45;0 -->
<g id="edge10" class="edge">
<title>10&#45;&#45;0</title>
<path fill="none" stroke="black" d="M326.75,-678.71C299.43,-692.46 262.02,-711.28 234.72,-725.02"/>
<text text-anchor="middle" x="277.24" y="-705.66" font-family="Times,serif" font-size="14.00">9</text>
</g>
<!-- 10&#45;&#45;3 -->
<g id="edge19" class="edge">
<title>10&#45;&#45;3</title>
<path fill="none" stroke="black" d="M369.15,-633.87C378.27,-595.9 394.88,-526.79 403.99,-488.88"/>
<text text-anchor="middle" x="379.57" y="-565.17" font-family="Times,serif" font-size="14.00">18</text>
</g>
<!-- 10&#45;&#45;8 -->
<g id="edge40" class="edge">
<title>10&#45;&#45;8</title>
<path fill="none" stroke="black" d="M332.26,-639.75C311.57,-625.56 284.29,-606.86 263.54,-592.64"/>
<text text-anchor="middle" x="290.9" y="-619.99" font-family="Times,serif" font-size="14.00">39</text>
</g>
<!-- 11 -->
<g id="node12" class="node">
<title>11</title>
<ellipse fill="none" stroke="black" cx="44.95" cy="-821.9" rx="44.6" ry="26.74"/>
<text text-anchor="middle" x="44.95" y="-825.7" font-family="Times,serif" font-size="14.00">Node 11</text>
<text text-anchor="middle" x="44.95" y="-810.7" font-family="Times,serif" font-size="14.00">0.18 1</text>
</g>
<!-- 11&#45;&#45;0 -->
<g id="edge16" class="edge">
<title>11&#45;&#45;0</title>
<path fill="none" stroke="black" d="M79.11,-804.41C104.08,-791.61 137.86,-774.31 163.18,-761.34"/>
<text text-anchor="middle" x="114.14" y="-786.67" font-family="Times,serif" font-size="14.00">15</text>
</g>
<!-- 12 -->
<g id="node13" class="node">
<title>12</title>
<ellipse fill="none" stroke="black" cx="813.7" cy="-98.82" rx="44.6" ry="26.74"/>
<text text-anchor="middle" x="813.7" y="-102.62" font-family="Times,serif" font-size="14.00">Node 12</text>
<text text-anchor="middle" x="813.7" y="-87.62" font-family="Times,serif" font-size="14.00">0.18 0</text>
</g>
<!-- 12&#45;&#45;1 -->
<g id="edge26" class="edge">
<title>12&#45;&#45;1</title>
<path fill="none" stroke="black" d="M811.17,-125.86C810.32,-134.98 809.37,-145.17 808.52,-154.3"/>
<text text-anchor="middle" x="802.84" y="-128.88" font-family="Times,serif" font-size="14.00">25</text>
</g>
<!-- 12&#45;&#45;5 -->
<g id="edge14" class="edge">
<title>12&#45;&#45;5</title>
<path fill="none" stroke="black" d="M856.03,-107.64C879.62,-112.56 908.99,-118.68 933.01,-123.69"/>
<text text-anchor="middle" x="887.52" y="-119.47" font-family="Times,serif" font-size="14.00">13</text>
</g>
<!-- 13 -->
<g id="node14" class="node">
<title>13</title>
<ellipse fill="none" stroke="black" cx="643.94" cy="-162.78" rx="48.17" ry="26.74"/>
<text text-anchor="middle" x="643.94" y="-166.58" font-family="Times,serif" font-size="14.00">Node 13</text>
<text text-anchor="middle" x="643.94" y="-151.58" font-family="Times,serif" font-size="14.00">0.13 0.32</text>
</g>
<!-- 13&#45;&#45;1 -->
<g id="edge5" class="edge">
<title>13&#45;&#45;1</title>
<path fill="none" stroke="black" d="M691.24,-168.22C712.45,-170.65 737.41,-173.52 758.62,-175.96"/>
<text text-anchor="middle" x="721.43" y="-175.89" font-family="Times,serif" font-size="14.00">4</text>
</g>
<!-- 13&#45;&#45;12 -->
<g id="edge33" class="edge">
<title>13&#45;&#45;12</title>
<path fill="none" stroke="black" d="M684.17,-147.62C711.91,-137.17 748.56,-123.36 775.79,-113.1"/>
<text text-anchor="middle" x="722.98" y="-134.16" font-family="Times,serif" font-size="14.00">32</text>
</g>
<!-- 14 -->
<g id="node15" class="node">
<title>14</title>
<ellipse fill="none" stroke="black" cx="1333.85" cy="-175.99" rx="48.17" ry="26.74"/>
<text text-anchor="middle" x="1333.85" y="-179.79" font-family="Times,serif" font-size="14.00">Node 14</text>
<text text-anchor="middle" x="1333.85" y="-164.79" font-family="Times,serif" font-size="14.00">0.51 0.22</text>
</g>
<!-- 14&#45;&#45;2 -->
<g id="edge29" class="edge">
<title>14&#45;&#45;2</title>
<path fill="none" stroke="black" d="M1327.19,-202.67C1320.68,-228.74 1310.82,-268.24 1304.28,-294.43"/>
<text text-anchor="middle" x="1308.74" y="-252.35" font-family="Times,serif" font-size="14.00">28</text>
</g>
<!-- 14&#45;&#45;7 -->
<g id="edge43" class="edge">
<title>14&#45;&#45;7</title>
<path fill="none" stroke="black" d="M1321.58,-202.13C1317.6,-210.61 1313.2,-220.01 1309.22,-228.47"/>
<text text-anchor="middle" x="1308.4" y="-204.1" font-family="Times,serif" font-size="14.00">42</text>
</g>
<!-- 14&#45;&#45;9 -->
<g id="edge12" class="edge">
<title>14&#45;&#45;9</title>
<path fill="none" stroke="black" d="M1285.64,-177.73C1265.68,-178.45 1242.59,-179.29 1222.66,-180.01"/>
<text text-anchor="middle" x="1247.15" y="-182.67" font-family="Times,serif" font-size="14.00">11</text>
</g>
<!-- 15 -->
<g id="node16" class="node">
<title>15</title>
<ellipse fill="none" stroke="black" cx="1002.59" cy="-948.85" rx="48.17" ry="26.74"/>
<text text-anchor="middle" x="1002.59" y="-952.65" font-family="Times,serif" font-size="14.00">Node 15</text>
<text text-anchor="middle" x="1002.59" y="-937.65" font-family="Times,serif" font-size="14.00">0.87 0.91</text>
</g>
<!-- 15&#45;&#45;6 -->
<g id="edge32" class="edge">
<title>15&#45;&#45;6</title>
<path fill="none" stroke="black" d="M975.1,-926.48C948.51,-904.85 908.46,-872.26 881.92,-850.66"/>
<text text-anchor="middle" x="921.51" y="-892.37" font-family="Times,serif" font-size="14.00">31</text>
</g>
<!-- 16 -->
<g id="node17" class="node">
<title>16</title>
<ellipse fill="none" stroke="black" cx="1464.58" cy="-267.56" rx="48.17" ry="26.74"/>
<text text-anchor="middle" x="1464.58" y="-271.36" font-family="Times,serif" font-size="14.00">Node 16</text>
<text text-anchor="middle" x="1464.58" y="-256.36" font-family="Times,serif" font-size="14.00">0.78 0.36</text>
</g>
<!-- 16&#45;&#45;2 -->
<g id="edge7" class="edge">
<title>16&#45;&#45;2</title>
<path fill="none" stroke="black" d="M1422.86,-281.01C1397.35,-289.24 1364.83,-299.73 1339.31,-307.96"/>
<text text-anchor="middle" x="1377.59" y="-298.29" font-family="Times,serif" font-size="14.00">6</text>
</g>
<!-- 16&#45;&#45;7 -->
<g id="edge20" class="edge">
<title>16&#45;&#45;7</title>
<path fill="none" stroke="black" d="M1416.56,-263.82C1394.03,-262.06 1367.25,-259.98 1344.75,-258.22"/>
<text text-anchor="middle" x="1373.65" y="-264.82" font-family="Times,serif" font-size="14.00">19</text>
</g>
<!-- 16&#45;&#45;14 -->
<g id="edge42" class="edge">
<title>16&#45;&#45;14</title>
<path fill="none" stroke="black" d="M1434.59,-246.55C1413.48,-231.77 1385.33,-212.05 1364.15,-197.22"/>
<text text-anchor="middle" x="1392.37" y="-225.68" font-family="Times,serif" font-size="14.00">41</text>
</g>
<!-- 17 -->
<g id="node18" class="node">
<title>17</title>
<ellipse fill="none" stroke="black" cx="348.6" cy="-819.73" rx="44.6" ry="26.74"/>
<text text-anchor="middle" x="348.6" y="-823.53" font-family="Times,serif" font-size="14.00">Node 17</text>
<text text-anchor="middle" x="348.6" y="-808.53" font-family="Times,serif" font-size="14.00">0.3 0.82</text>
</g>
<!-- 17&#45;&#45;0 -->
<g id="edge38" class="edge">
<title>17&#45;&#45;0</title>
<path fill="none" stroke="black" d="M314.62,-802.33C290.71,-790.09 258.79,-773.75 234.51,-761.33"/>
<text text-anchor="middle" x="267.57" y="-785.63" font-family="Times,serif" font-size="14.00">37</text>
</g>
<!-- 17&#45;&#45;10 -->
<g id="edge28" class="edge">
<title>17&#45;&#45;10</title>
<path fill="none" stroke="black" d="M351,-792.74C353.6,-763.39 357.74,-716.77 360.33,-687.48"/>
<text text-anchor="middle" x="348.67" y="-743.91" font-family="Times,serif" font-size="14.00">27</text>
</g>
<!-- 18 -->
<g id="node19" class="node">
<title>18</title>
<ellipse fill="none" stroke="black" cx="192.85" cy="-649.23" rx="48.17" ry="26.74"/>
<text text-anchor="middle" x="192.85" y="-653.03" font-family="Times,serif" font-size="14.00">Node 18</text>
<text text-anchor="middle" x="192.85" y="-638.03" font-family="Times,serif" font-size="14.00">0.09 0.77</text>
</g>
<!-- 18&#45;&#45;0 -->
<g id="edge9" class="edge">
<title>18&#45;&#45;0</title>
<path fill="none" stroke="black" d="M194.57,-676.12C195.37,-688.69 196.32,-703.61 197.12,-716.17"/>
<text text-anchor="middle" x="192.35" y="-699.95" font-family="Times,serif" font-size="14.00">8</text>
</g>
<!-- 18&#45;&#45;8 -->
<g id="edge2" class="edge">
<title>18&#45;&#45;8</title>
<path fill="none" stroke="black" d="M206.17,-623.38C210.44,-615.08 215.16,-605.9 219.44,-597.6"/>
<text text-anchor="middle" x="209.3" y="-614.29" font-family="Times,serif" font-size="14.00">1</text>
</g>
<!-- 18&#45;&#45;10 -->
<g id="edge37" class="edge">
<title>18&#45;&#45;10</title>
<path fill="none" stroke="black" d="M240.62,-652.44C263.78,-653.99 291.53,-655.85 314.72,-657.4"/>
<text text-anchor="middle" x="270.67" y="-658.72" font-family="Times,serif" font-size="14.00">36</text>
</g>
<!-- 19 -->
<g id="node20" class="node">
<title>19</title>
<ellipse fill="none" stroke="black" cx="689.78" cy="-785.03" rx="48.17" ry="26.74"/>
<text text-anchor="middle" x="689.78" y="-788.83" font-family="Times,serif" font-size="14.00">Node 19</text>
<text text-anchor="middle" x="689.78" y="-773.83" font-family="Times,serif" font-size="14.00">0.41 0.77</text>
</g>
<!-- 19&#45;&#45;4 -->
<g id="edge4" class="edge">
<title>19&#45;&#45;4</title>
<path fill="none" stroke="black" d="M689.92,-812.12C689.97,-820.46 690.02,-829.64 690.06,-837.98"/>
<text text-anchor="middle" x="686.49" y="-813.85" font-family="Times,serif" font-size="14.00">3</text>
</g>
<!-- 19&#45;&#45;6 -->
<g id="edge31" class="edge">
<title>19&#45;&#45;6</title>
<path fill="none" stroke="black" d="M733.51,-796.54C757.45,-802.84 787.01,-810.62 810.93,-816.92"/>
<text text-anchor="middle" x="765.22" y="-810.53" font-family="Times,serif" font-size="14.00">30</text>
</g>
<!-- 20 -->
<g id="node21" class="node">
<title>20</title>
<ellipse fill="none" stroke="black" cx="510.96" cy="-786.55" rx="44.6" ry="26.74"/>
<text text-anchor="middle" x="510.96" y="-790.35" font-family="Times,serif" font-size="14.00">Node 20</text>
<text text-anchor="middle" x="510.96" y="-775.35" font-family="Times,serif" font-size="14.00">0.3 0.8</text>
</g>
<!-- 20&#45;&#45;4 -->
<g id="edge44" class="edge">
<title>20&#45;&#45;4</title>
<path fill="none" stroke="black" d="M547.23,-802.43C577.72,-815.78 621.15,-834.8 652.13,-848.37"/>
<text text-anchor="middle" x="592.68" y="-829.2" font-family="Times,serif" font-size="14.00">43</text>
</g>
<!-- 20&#45;&#45;10 -->
<g id="edge6" class="edge">
<title>20&#45;&#45;10</title>
<path fill="none" stroke="black" d="M485.14,-764.61C458.26,-741.78 416.38,-706.2 389.24,-683.15"/>
<text text-anchor="middle" x="433.69" y="-727.68" font-family="Times,serif" font-size="14.00">5</text>
</g>
<!-- 20&#45;&#45;17 -->
<g id="edge1" class="edge">
<title>20&#45;&#45;17</title>
<path fill="none" stroke="black" d="M468.73,-795.18C444.77,-800.08 414.88,-806.18 390.91,-811.08"/>
<text text-anchor="middle" x="426.32" y="-806.93" font-family="Times,serif" font-size="14.00">0</text>
</g>
<!-- 20&#45;&#45;19 -->
<g id="edge13" class="edge">
<title>20&#45;&#45;19</title>
<path fill="none" stroke="black" d="M555.63,-786.17C581.8,-785.95 614.86,-785.67 641.62,-785.44"/>
<text text-anchor="middle" x="591.62" y="-789.6" font-family="Times,serif" font-size="14.00">12</text>
</g>
<!-- 21 -->
<g id="node22" class="node">
<title>21</title>
<ellipse fill="none" stroke="black" cx="789.13" cy="-998.56" rx="48.17" ry="26.74"/>
<text text-anchor="middle" x="789.13" y="-1002.36" font-family="Times,serif" font-size="14.00">Node 21</text>
<text text-anchor="middle" x="789.13" y="-987.36" font-family="Times,serif" font-size="14.00">0.67 0.78</text>
</g>
<!-- 21&#45;&#45;4 -->
<g id="edge34" class="edge">
<title>21&#45;&#45;4</title>
<path fill="none" stroke="black" d="M770.53,-973.44C752.84,-949.57 726.39,-913.88 708.73,-890.05"/>
<text text-anchor="middle" x="732.63" y="-935.54" font-family="Times,serif" font-size="14.00">33</text>
</g>
<!-- 21&#45;&#45;6 -->
<g id="edge3" class="edge">
<title>21&#45;&#45;6</title>
<path fill="none" stroke="black" d="M799.36,-971.97C811.65,-940.01 832.16,-886.69 844.42,-854.81"/>
<text text-anchor="middle" x="818.39" y="-917.19" font-family="Times,serif" font-size="14.00">2</text>
</g>
<!-- 22 -->
<g id="node23" class="node">
<title>22</title>
<ellipse fill="none" stroke="black" cx="864.77" cy="-907.21" rx="48.17" ry="26.74"/>
<text text-anchor="middle" x="864.77" y="-911.01" font-family="Times,serif" font-size="14.00">Node 22</text>
<text text-anchor="middle" x="864.77" y="-896.01" font-family="Times,serif" font-size="14.00">0.79 0.78</text>
</g>
<!-- 22&#45;&#45;4 -->
<g id="edge39" class="edge">
<title>22&#45;&#45;4</title>
<path fill="none" stroke="black" d="M820.27,-896.46C794,-890.12 760.87,-882.12 734.62,-875.78"/>
<text text-anchor="middle" x="770.45" y="-889.92" font-family="Times,serif" font-size="14.00">38</text>
</g>
<!-- 22&#45;&#45;6 -->
<g id="edge30" class="edge">
<title>22&#45;&#45;6</title>
<path fill="none" stroke="black" d="M861.26,-880.09C860.23,-872.08 859.09,-863.31 858.06,-855.31"/>
<text text-anchor="middle" x="852.66" y="-871.5" font-family="Times,serif" font-size="14.00">29</text>
</g>
<!-- 22&#45;&#45;15 -->
<g id="edge17" class="edge">
<title>22&#45;&#45;15</title>
<path fill="none" stroke="black" d="M907.25,-920.05C924.01,-925.11 943.24,-930.92 960.02,-935.99"/>
<text text-anchor="middle" x="926.63" y="-931.82" font-family="Times,serif" font-size="14.00">16</text>
</g>
<!-- 22&#45;&#45;21 -->
<g id="edge11" class="edge">
<title>22&#45;&#45;21</title>
<path fill="none" stroke="black" d="M844.5,-931.69C833.65,-944.8 820.32,-960.89 809.46,-974.01"/>
<text text-anchor="middle" x="819.98" y="-956.65" font-family="Times,serif" font-size="14.00">10</text>
</g>
<!-- 23 -->
<g id="node24" class="node">
<title>23</title>
<ellipse fill="none" stroke="black" cx="709.29" cy="-27.29" rx="44.6" ry="26.74"/>
<text text-anchor="middle" x="709.29" y="-31.09" font-family="Times,serif" font-size="14.00">Node 23</text>
<text text-anchor="middle" x="709.29" y="-16.09" font-family="Times,serif" font-size="14.00">0.1 0.2</text>
</g>
<!-- 23&#45;&#45;1 -->
<g id="edge8" class="edge">
<title>23&#45;&#45;1</title>
<path fill="none" stroke="black" d="M725.26,-52.74C743.17,-81.3 772.07,-127.35 789.99,-155.92"/>
<text text-anchor="middle" x="754.13" y="-108.13" font-family="Times,serif" font-size="14.00">7</text>
</g>
<!-- 23&#45;&#45;12 -->
<g id="edge23" class="edge">
<title>23&#45;&#45;12</title>
<path fill="none" stroke="black" d="M738.93,-47.6C753.04,-57.26 769.86,-68.79 783.98,-78.46"/>
<text text-anchor="middle" x="754.45" y="-66.83" font-family="Times,serif" font-size="14.00">22</text>
</g>
<!-- 23&#45;&#45;13 -->
<g id="edge35" class="edge">
<title>23&#45;&#45;13</title>
<path fill="none" stroke="black" d="M696.84,-53.1C685.29,-77.05 668.17,-112.54 656.56,-136.61"/>
<text text-anchor="middle" x="669.7" y="-98.65" font-family="Times,serif" font-size="14.00">34</text>
</g>
<!-- 24 -->
<g id="node25" class="node">
<title>24</title>
<ellipse fill="none" stroke="black" cx="499.2" cy="-291.59" rx="48.17" ry="26.74"/>
<text text-anchor="middle" x="499.2" y="-295.39" font-family="Times,serif" font-size="14.00">Node 24</text>
<text text-anchor="middle" x="499.2" y="-280.39" font-family="Times,serif" font-size="14.00">0.08 0.48</text>
</g>
<!-- 24&#45;&#45;3 -->
<g id="edge22" class="edge">
<title>24&#45;&#45;3</title>
<path fill="none" stroke="black" d="M485.71,-317.51C468.97,-349.68 440.59,-404.21 423.86,-436.35"/>
<text text-anchor="middle" x="447.78" y="-380.73" font-family="Times,serif" font-size="14.00">21</text>
</g>
<!-- 24&#45;&#45;13 -->
<g id="edge18" class="edge">
<title>24&#45;&#45;13</title>
<path fill="none" stroke="black" d="M525.07,-268.56C551.42,-245.12 592.02,-208.98 618.28,-185.61"/>
<text text-anchor="middle" x="564.68" y="-230.89" font-family="Times,serif" font-size="14.00">17</text>
</g>
</g>
</svg>
